<svg width="35" height="35" viewBox="0 0 35 35" fill="none" xmlns="http://www.w3.org/2000/svg">
<path d="M13.1263 32.0837C13.9317 32.0837 14.5846 31.4307 14.5846 30.6253C14.5846 29.8199 13.9317 29.167 13.1263 29.167C12.3209 29.167 11.668 29.8199 11.668 30.6253C11.668 31.4307 12.3209 32.0837 13.1263 32.0837Z" stroke="black" stroke-width="2" stroke-linecap="round" stroke-linejoin="round"/>
<path d="M29.1654 32.0837C29.9708 32.0837 30.6237 31.4307 30.6237 30.6253C30.6237 29.8199 29.9708 29.167 29.1654 29.167C28.3599 29.167 27.707 29.8199 27.707 30.6253C27.707 31.4307 28.3599 32.0837 29.1654 32.0837Z" stroke="black" stroke-width="2" stroke-linecap="round" stroke-linejoin="round"/>
<path d="M1.45703 1.45801H7.29036L11.1987 20.9851C11.3321 21.6565 11.6973 22.2596 12.2305 22.6889C12.7638 23.1181 13.431 23.3461 14.1154 23.333H28.2904C28.9748 23.3461 29.642 23.1181 30.1752 22.6889C30.7084 22.2596 31.0737 21.6565 31.207 20.9851L33.5404 8.74967H8.7487" stroke="black" stroke-width="2" stroke-linecap="round" stroke-linejoin="round"/>
</svg>
